<?xml version="1.0" encoding="UTF-8" standalone="no"?>
<svg
   xmlns:dc="http://purl.org/dc/elements/1.1/"
   xmlns:cc="http://creativecommons.org/ns#"
   xmlns:rdf="http://www.w3.org/1999/02/22-rdf-syntax-ns#"
   xmlns:svg="http://www.w3.org/2000/svg"
   xmlns="http://www.w3.org/2000/svg"
   id="svg14"
   version="1.1"
   viewBox="0 0 60 60"
   height="60"
   width="60">
  <metadata
     id="metadata20">
    <rdf:RDF>
      <cc:Work
         rdf:about="">
        <dc:format>image/svg+xml</dc:format>
        <dc:type
           rdf:resource="http://purl.org/dc/dcmitype/StillImage" />
      </cc:Work>
    </rdf:RDF>
  </metadata>
  <defs
     id="defs18" />
  <g
     style="fill:none;fill-rule:evenodd"
     id="g12">
    <circle
       style="fill:#f0f2f5"
       id="circle2"
       r="30"
       cy="30"
       cx="30" />
    <path
       style="fill:#000000;fill-rule:nonzero"
       id="path4"
       d="m 23,42 h 14 v -2 h 2 v 3 c 0,1.656854 -1.343146,3 -3,3 H 19 c -1.656854,0 -3,-1.343146 -3,-3 V 20 c 0,-1.656854 1.343146,-3 3,-3 h 4 v 2 H 21 V 40 19 h -2 c -0.552285,0 -1,0.447715 -1,1 v 23 c 0,0.552285 0.447715,1 1,1 h 17 c 0.552285,0 1,-0.447715 1,-1 v -1 z" />
    <path
       style="fill:#000000;fill-rule:nonzero"
       id="path6"
       d="M 36,14.001507 V 16 H 24 c -0.552285,0 -1,0.447715 -1,1 v 22 c 0,0.552285 0.447715,1 1,1 h 17 c 0.552285,0 1,-0.447715 1,-1 V 22 h 1.996969 c 0.002,0.04483 0.003,0.08982 0.003,0.134917 V 39 c 0,1.656854 -1.343146,3 -3,3 H 24 c -1.656854,0 -3,-1.343146 -3,-3 V 17 c 0,-1.656854 1.343146,-3 3,-3 z" />
    <path
       style="fill:#000000;fill-rule:nonzero"
       id="path8"
       d="m 31.242641,34.303301 -3.535534,-3.535534 c -0.390525,-0.390524 -0.390525,-1.023689 0,-1.414214 0.390524,-0.390524 1.023689,-0.390524 1.414213,0 l 2.828427,2.828428 4.949748,-4.949748 c 0.390524,-0.390524 1.023689,-0.390524 1.414213,0 0.390525,0.390524 0.390525,1.023689 0,1.414214 l -5.656854,5.656854 c -0.390524,0.390524 -1.023689,0.390524 -1.414213,0 z" />
    <path
       style="stroke:#000000;stroke-width:2;stroke-linejoin:round"
       id="path10"
       d="m 36,15 v 6 c 0,0.552285 0.447715,1 1,1 h 6 z" />
  </g>
</svg>
