<svg version="1" xmlns="http://www.w3.org/2000/svg" xmlns:xlink="http://www.w3.org/1999/xlink" viewBox="0 0 208.3 39.4"><path fill="#231F20" d="M196.8 36.9c-.3-.4-2.9-4.9-2.9-4.9 1-.3 1.7-.7 2.3-1.4.5-.7.8-1.5.8-2.5V28c0-2.8-1.7-4.1-5.3-4.1-2.4 0-4.6.1-4.6.1v.5c.6.2.6.6.6.9V37c0 .2 0 .6-.6.9v.5h2.9v-.5c-.6-.2-.6-.6-.6-.9v-4.7c1 0 2.6.1 2.6.1l3.6 6h2.4v-.5c-.6-.1-.9-.6-1.2-1m-5.3-6.1h-2.1v-5.3c.3 0 1-.1 2.1-.1 1.3 0 2.2.2 2.8.6.6.4.9 1.1.9 2v.1c0 1-.2 1.6-.8 2.1-.6.4-1.5.6-2.9.6M171.1 32.1c-.4-.6-.9-1-1.6-1.2.7-.3 1.1-.7 1.5-1.3.4-.5.5-1.1.5-1.9v-.3c0-2.5-1.4-3.5-5.4-3.5h-4.4v.5c.6.2.6.6.6.9V37c0 .2 0 .6-.6.9v.5h4.6c3.8 0 5.4-1.2 5.4-4V34c0-.7-.2-1.3-.6-1.9m-7.1-6.7h1.9c1.5 0 2.4.1 3 .5.6.4.8.9.8 1.7v.3c0 1.5-.8 2.4-2.7 2.4h-3v-4.9zm5.9 9c0 .9-.3 1.5-.8 1.9-.6.4-1.6.6-3 .6-.1 0-.8 0-2-.1v-5.2h3c1.9 0 2.9.8 2.9 2.5v.3zM112.8 36.2c-.2.6-.6.6-.9.6h-5.1v-5.3h4.9V30h-4.9v-4.5h5c.2 0 .6 0 .9.6h.5V24h-8.7v.5c.2.1.3.1.4.2.2.2.2.5.2.6V37c0 .2 0 .6-.6.8v.5h8.8v-2.1h-.5zM135.3 36.2c-.2.6-.6.6-.9.6h-5.1v-5.3h4.9V30h-4.9v-4.5h5c.2 0 .6 0 .9.6h.5V24H127v.5c.2.1.3.1.4.2.2.2.2.5.2.6V37c0 .2 0 .6-.6.8v.5h8.8v-2.1h-.5zM54.2 36.8c0-.1-3.3-11.6-3.3-11.6-.3-1-.9-1.5-2-1.5-1 0-1.7.5-2 1.5 0 0-3 10.8-3.3 11.6-.2.6-.5.8-1 1v.5H46v-.5s-.7-.2-.5-1c.3-1.3.9-3.3.9-3.3h5s.8 2.9.9 3.3c.2.7-.5 1-.5 1v.5h3.3v-.5c-.4-.1-.7-.3-.9-1m-7.4-4.7s1.8-6.3 1.8-6.5c.1-.2.2-.3.3-.3.2 0 .3.1.3.3.1.2 1.8 6.5 1.8 6.5h-4.2zM75.4 23.9V26h.5c.2-.6.6-.6.9-.6h2.8v11.5c0 .2 0 .6-.6.9v.5h3v-.5c-.6-.2-.6-.6-.6-.9V25.4h2.8c.2 0 .6 0 .9.6h.5v-2.1H75.4zM115.1 23.9V26h.5c.2-.6.6-.6.9-.6h2.8v11.5c0 .2 0 .6-.6.9v.5h3v-.5c-.6-.2-.6-.6-.6-.9V25.4h2.8c.2 0 .6 0 .9.6h.5v-2.1h-10.2zM97.3 23.8c-.5 0-1.2 0-2.1.1-1.1 0-2.2.1-2.2.1v.5c.6.2.6.6.6.9v11.7c0 .2 0 .6-.6.9v.5h3V38c-.6-.2-.6-.6-.6-.9v-4.5c.8.1 1.5.1 1.9.1 3.6 0 5.4-1.4 5.4-4.3V28c0-2.8-1.8-4.2-5.4-4.2m3.7 4.5c0 1-.3 1.8-.9 2.2-.6.4-1.5.7-2.8.7-.1 0-.7 0-1.9-.1v-5.7c.7-.1 1.3-.1 1.9-.1 1.3 0 2.2.2 2.8.6.6.4.9 1.1.9 2.1v.3zM204.3 23.8c-1.6 0-2.9.5-3.8 1.5-.9 1-1.4 2.5-1.4 4.5v2.6c0 1.9.5 3.4 1.4 4.5.9 1 2.1 1.6 3.6 1.6 1 0 2 0 2.7-.1.8-.1 1.5-.3 1.5-.3v-6.8c0-.3-.2-.5-.6-.5h-2.3v.5c.9.1 1.1.4 1.1.8v4.7c-.9.1-1.7.1-2.4.1-1 0-1.8-.4-2.4-1.1-.6-.7-.9-1.8-.9-3.4v-2.6c0-3 1.1-4.4 3.4-4.4 1 0 2.4 0 2.8.1.3.1.5.2.7.7h.5v-2c-.1-.1-2-.4-3.9-.4M41 32.4c-.5-.6-1.2-1.2-2.3-1.9l-2-1.2c-.6-.4-1.1-.7-1.4-1.1-.3-.3-.5-.6-.5-1 0-.7.2-1.1.6-1.4.4-.3 1.2-.4 2.2-.4 1 0 2.2 0 2.6.1.3.1.5.3.6.6h.5v-2c-.1 0-2.1-.4-3.7-.4-3.1 0-4.6 1.1-4.6 3.4 0 .7.2 1.4.6 1.9.4.5 1 1.1 1.9 1.6l2.1 1.3c.9.6 1.6 1 1.9 1.4.3.3.5.8.5 1.2 0 .8-.2 1.4-.7 1.7-.5.4-1.2.5-2.2.5-.9 0-2 0-2.5-.1s-.7-.3-.7-.7h-.6v2s1.5.3 3.8.3c1.1 0 1.9-.1 2.6-.4.7-.3 1.2-.7 1.6-1.3.4-.6.5-1.3.5-2.1-.1-.6-.3-1.4-.8-2M158.7 32.4c-.5-.6-1.2-1.2-2.3-1.9l-2-1.2c-.6-.4-1.1-.7-1.4-1.1-.3-.3-.5-.6-.5-1 0-.7.2-1.1.6-1.4.4-.3 1.2-.4 2.2-.4 1 0 2.2 0 2.6.1.3.1.5.3.6.6h.5v-2c-.1 0-2.1-.4-3.7-.4-3.1 0-4.6 1.1-4.6 3.4 0 .7.2 1.4.6 1.9.4.5 1 1.1 1.9 1.6l2.1 1.3c.9.6 1.6 1 1.9 1.4.3.3.5.8.5 1.2 0 .8-.2 1.4-.7 1.7-.5.4-1.2.5-2.2.5-.9 0-2 0-2.5-.1s-.7-.3-.7-.7h-.6v2s1.5.3 3.8.3c1.1 0 1.9-.1 2.6-.4.7-.3 1.2-.7 1.6-1.3.4-.6.5-1.3.5-2.1-.1-.6-.3-1.4-.8-2M71.1 23.9v.5c.6.2.6.6.6.9v10.6l-6.2-11.6c-.1-.2-.2-.3-.3-.3-.1-.1-.3-.1-.5-.1h-2.2v.5c.6.2.6.6.6.9V37c0 .2 0 .6-.6.9v.5h2.7v-.5c-.6-.2-.6-.6-.6-.9V26.3L70.8 38c.1.2.3.3.6.3h1.2c.2 0 .3-.1.4-.2.1-.1.2-.2.2-.4V25.3c0-.2 0-.6.6-.9v-.5h-2.7zM59 37V25.3c0-.2 0-.6.6-.9v-.5h-3v.5c.6.2.6.6.6.9V37c0 .2 0 .6-.6.9v.5h3v-.5c-.6-.3-.6-.7-.6-.9M182 23.9v.5c.6.2.6.6.6.9v7.8c0 1.4-.2 2.4-.8 3-.5.6-1.3.9-2.4.9-1.2 0-2-.3-2.5-.9-.5-.6-.7-1.6-.7-2.9v-7.8c0-.2 0-.6.6-.9V24h-3v.5c.6.2.6.6.6.9v7.8c0 3.6 1.7 5.4 5 5.4s4.9-1.8 4.9-5.4v-7.8c0-.2 0-.6.6-.9V24H182zM148.1 36.9c-.3-.4-2.9-4.9-2.9-4.9 1-.3 1.7-.7 2.3-1.4.5-.7.8-1.5.8-2.5V28c0-2.8-1.7-4.1-5.3-4.1-2.4 0-4.6.1-4.6.1v.5c.6.2.6.6.6.9V37c0 .2 0 .6-.6.9v.5h2.9v-.5c-.6-.2-.6-.6-.6-.9v-4.7c1 0 2.6.1 2.6.1l3.6 6h2.4v-.5c-.6-.1-1-.6-1.2-1m-5.3-6.1h-2.1v-5.3c.3 0 1-.1 2.1-.1 1.3 0 2.2.2 2.8.6.6.4.9 1.1.9 2v.1c0 1-.2 1.6-.8 2.1-.6.4-1.6.6-2.9.6"/><path fill="none" d="M0-.1h208.3v38.5H0z"/><defs><path id="a" d="M10.5-.1C6.2.1 2.2 2.9.6 7.2c-2 5.7 1 11.9 6.7 13.9 1 .3 2 .5 3 .6h1.3c4.3-.2 8.1-3 9.7-7.3 2-5.7-1-11.9-6.7-13.9a9.6 9.6 0 0 0-3.3-.6h-.8z"/></defs><clipPath id="b"><use xlink:href="#a" overflow="visible"/></clipPath><linearGradient id="c" gradientUnits="userSpaceOnUse" x1="-310.839" y1="302.491" x2="-309.694" y2="302.491" gradientTransform="scale(15.1721 -15.1721) rotate(45 211.115 526.553)"><stop offset="0" stop-color="#e11837"/><stop offset="1" stop-color="#f15a22"/></linearGradient><path clip-path="url(#b)" fill="url(#c)" d="M-12.3 10.8l23.2-23.1 23.2 23.1L10.9 34z"/><defs><path id="d" d="M0-.1h208.3v38.5H0z"/></defs><clipPath id="e"><use xlink:href="#d" overflow="visible"/></clipPath><path clip-path="url(#e)" fill="#C4122F" d="M21.8 28.6v1.1c0 2.1-4.9 3.8-10.9 3.8S0 31.8 0 29.7v-1.1h21.8z"/><defs><path id="f" d="M10.9 24.9c-6 0-10.9 1.7-10.9 3.8 0 2.1 4.9 3.8 10.9 3.8s10.9-1.7 10.9-3.8c0-2.2-4.8-3.8-10.9-3.8.1 0 0 0 0 0"/></defs><clipPath id="g"><use xlink:href="#f" overflow="visible"/></clipPath><linearGradient id="h" gradientUnits="userSpaceOnUse" x1="-302.73" y1="307.933" x2="-301.585" y2="307.933" gradientTransform="scale(15.3984 -15.3984) rotate(8.973 1823.34 2084.391)"><stop offset="0" stop-color="#e11837"/><stop offset="1" stop-color="#f15a22"/></linearGradient><path clip-path="url(#g)" fill="url(#h)" d="M-1.2 25.1l22.5-3.6L23 32.3.5 35.8z"/><path fill="#C4122F" d="M0 37.1c0-.3 4.9-.6 10.9-.6s10.9.3 10.9.6v.7c0 .3-4.9.6-10.9.6-6-.1-10.9-.4-10.9-.7v-.6z"/><path fill="#231F20" d="M55.4 16.5c0-.1-3.2-11.4-3.2-11.4-.3-1-.9-1.4-1.9-1.4-1 0-1.7.5-1.9 1.4 0 0-3 10.6-3.2 11.4-.2.6-.5.8-1 .9v.5h3.3v-.5s-.7-.2-.5-.9c.3-1.3.9-3.2.9-3.2h4.9s.8 2.9.9 3.2c.2.7-.5.9-.5.9v.5h3.3v-.5c-.5-.1-.9-.3-1.1-.9m-7.2-4.7s1.7-6.2 1.8-6.4c.1-.2.2-.2.3-.2.2 0 .3.1.3.3.1.2 1.8 6.3 1.8 6.3h-4.2zM81.5 16.6l-5-6.9 4-4.6c.5-.6.8-.7 1.3-.8v-.5h-2.2L74 10.4V5.1c0-.2 0-.6.6-.8v-.5h-2.9v.5c.6.2.6.6.6.8v11.4c0 .2 0 .6-.6.8v.5h2.9v-.5c-.6-.1-.6-.5-.6-.7v-4l1.4-1.6 5 6.9h2.5v-.5c-.6-.1-1-.3-1.4-.8M68.5 3.8h-2.2v.5c.6.2.6.6.6.8v10.4l-6-11.3-.3-.3c-.1-.1-.3-.1-.5-.1h-2.2v.5c.6.2.6.6.6.8v11.4c0 .2 0 .6-.6.8v.5h2.7v-.5c-.6-.2-.6-.6-.6-.8V6.1l6.1 11.5c.1.2.3.3.6.3h1.2c.1 0 .3-.1.4-.2.1-.1.2-.2.2-.4V5.1c0-.2 0-.6.6-.8v-.5h-.6zM42.5 11.8c-.4-.5-.9-.9-1.6-1.2.7-.3 1.1-.7 1.4-1.2.3-.5.5-1.1.5-1.8v-.3c0-2.4-1.4-3.5-5.3-3.5h-4.4v.5c.6.2.6.6.6.8v11.4c0 .2 0 .6-.6.8v.5h4.6c3.7 0 5.3-1.2 5.3-3.9v-.3c.1-.6-.1-1.2-.5-1.8m-6.9-6.6h1.9c1.4 0 2.4.1 2.9.5.6.4.8.9.8 1.6v.2c0 1.5-.8 2.3-2.7 2.3h-2.9V5.2zm5.7 8.8c0 .9-.3 1.5-.8 1.9-.6.4-1.6.6-3 .6-.1 0-.8 0-2-.1v-5.1h2.9c1.9 0 2.8.8 2.8 2.4v.3z"/><path fill="none" d="M0-.1h208.3v38.5H0z"/></svg>