<?xml version="1.0" encoding="UTF-8" standalone="no"?>
<svg
   xmlns:dc="http://purl.org/dc/elements/1.1/"
   xmlns:cc="http://creativecommons.org/ns#"
   xmlns:rdf="http://www.w3.org/1999/02/22-rdf-syntax-ns#"
   xmlns:svg="http://www.w3.org/2000/svg"
   xmlns="http://www.w3.org/2000/svg"
   id="svg8"
   version="1.1"
   viewBox="0 0 60 60"
   height="60"
   width="60">
  <metadata
     id="metadata14">
    <rdf:RDF>
      <cc:Work
         rdf:about="">
        <dc:format>image/svg+xml</dc:format>
        <dc:type
           rdf:resource="http://purl.org/dc/dcmitype/StillImage" />
      </cc:Work>
    </rdf:RDF>
  </metadata>
  <defs
     id="defs12" />
  <g
     style="fill:none;fill-rule:evenodd"
     id="g6">
    <circle
       style="fill:#f0f2f5"
       id="circle2"
       r="30"
       cy="30"
       cx="30" />
    <path
       style="fill:#000000"
       id="path4"
       d="M 21,27.732436 V 42 H 19 V 27.732436 C 18.402199,27.386626 18,26.740282 18,26 c 0,-1.10457 0.89543,-2 2,-2 1.104569,0 2,0.89543 2,2 0,0.740282 -0.402199,1.386626 -1,1.732436 z m 5,5 V 42 H 24 V 32.732436 C 23.402199,32.386626 23,31.740282 23,31 c 0,-1.10457 0.89543,-2 2,-2 1.104569,0 2,0.89543 2,2 0,0.740282 -0.402199,1.386626 -1,1.732436 z m 4.063177,0.766909 C 30.285427,32.637064 31.068316,32 32,32 c 1.104569,0 2,0.895431 2,2 0,1.104569 -0.895431,2 -2,2 -0.507223,0 -0.970346,-0.188818 -1.322912,-0.5 C 30.261877,35.866472 30,36.402654 30,37 v 1 4 h -2 v -4 -1 c 0,-1.506496 0.832821,-2.818475 2.063177,-3.500655 z M 14,19 c 0,-1.656854 1.343146,-3 3,-3 h 19 c 2.209139,0 4,1.790861 4,4 h 1 c 1.656854,0 3,1.343146 3,3 v 5.170706 C 45.165192,28.582542 46,29.693781 46,31 v 2 c 0,1.306219 -0.834808,2.417458 -2,2.829294 V 41 c 0,1.656854 -1.343146,3 -3,3 H 17 c -1.656854,0 -3,-1.343146 -3,-3 V 21 Z m 3,1 h 21 c 0,-1.10457 -0.895431,-2 -2,-2 H 17 c -0.552285,0 -1,0.447715 -1,1 0,0.552285 0.447715,1 1,1 z m 23,2 H 17 16 v 19 c 0,0.552285 0.447715,1 1,1 h 24 c 0.552285,0 1,-0.447715 1,-1 v -5 h -3 c -1.656854,0 -3,-1.343146 -3,-3 v -2 c 0,-1.656854 1.343146,-3 3,-3 h 3 v -5 c 0,-0.552285 -0.447715,-1 -1,-1 z m 2,12 h 1 c 0.552285,0 1,-0.447715 1,-1 v -2 c 0,-0.552285 -0.447715,-1 -1,-1 h -4 c -0.552285,0 -1,0.447715 -1,1 v 2 c 0,0.552285 0.447715,1 1,1 z" />
  </g>
</svg>
