<svg xmlns="http://www.w3.org/2000/svg" width="60" height="60" viewBox="0 0 60 60">
  <g fill="none" fill-rule="evenodd">
    <circle cx="30" cy="30" r="30" fill="#F0F2F5"/>
    <path stroke="#000" stroke-width="2" d="M26,30.4906971 L26,34.9078617 L18.8439941,37.8960839 C17.7272027,38.3624364 17,39.4541628 17,40.6644138 L17,43 C17,44.1045695 17.8954305,45 19,45 L41,45 C42.1045695,45 43,44.1045695 43,43 L43,40.6644138 C43,39.4541628 42.2727973,38.3624364 41.1560059,37.8960839 L34,34.9078617 L34,30.4906971 L34.2857591,30.1990828 C35.3781716,29.0842866 36,27.59249 36,26 L36,25.207471 L36.6667539,24.9718073 C36.8646446,24.9018629 37,24.7137117 37,24.5 L37,21.5 C37,21.2862883 36.8646446,21.0981371 36.6667539,21.0281927 L36,20.792529 L36,19 C36,16.790861 34.209139,15 32,15 L28,15 C25.790861,15 24,16.790861 24,19 L24,20.792529 L23.3332461,21.0281927 C23.1353554,21.0981371 23,21.2862883 23,21.5 L23,24.5 C23,24.7137117 23.1353554,24.9018629 23.3332461,24.9718073 L24,25.207471 L24,26 C24,27.59249 24.6218284,29.0842866 25.7142409,30.1990828 L26,30.4906971 Z"/>
  </g>
</svg>
