<?xml version="1.0" encoding="UTF-8" standalone="no"?>
<svg
   xmlns:dc="http://purl.org/dc/elements/1.1/"
   xmlns:cc="http://creativecommons.org/ns#"
   xmlns:rdf="http://www.w3.org/1999/02/22-rdf-syntax-ns#"
   xmlns:svg="http://www.w3.org/2000/svg"
   xmlns="http://www.w3.org/2000/svg"
   id="svg12"
   version="1.1"
   viewBox="0 0 60 60"
   height="60"
   width="60">
  <metadata
     id="metadata18">
    <rdf:RDF>
      <cc:Work
         rdf:about="">
        <dc:format>image/svg+xml</dc:format>
        <dc:type
           rdf:resource="http://purl.org/dc/dcmitype/StillImage" />
      </cc:Work>
    </rdf:RDF>
  </metadata>
  <defs
     id="defs16" />
  <g
     style="fill:none;fill-rule:evenodd"
     id="g10">
    <circle
       style="fill:#f0f2f5"
       id="circle2"
       r="30"
       cy="30"
       cx="30" />
    <path
       style="fill:#000000"
       id="path4"
       d="M 28.991622,27.727562 C 28.398444,27.380576 28,26.736819 28,26 c 0,-1.10457 0.89543,-2 2,-2 1.104569,0 2,0.89543 2,2 0,0.736819 -0.398444,1.380576 -0.991622,1.727562 L 36.34419,44 H 37 c 0.552285,0 1,0.447715 1,1 0,0.552285 -0.447715,1 -1,1 H 23 c -0.552285,0 -1,-0.447715 -1,-1 0,-0.552285 0.447715,-1 1,-1 h 0.65581 z M 25.760587,44 h 8.478826 L 33.582538,41.996752 30,38.414214 26.417462,41.996752 Z M 27.797408,37.788379 28.585786,37 28.186763,36.600976 Z M 31.813237,36.600976 31.414214,37 32.202592,37.788379 Z M 31.114802,34.470984 30,31.07121 28.885198,34.470984 30,35.585786 Z" />
    <path
       style="stroke:#000000;stroke-width:2;stroke-linecap:round"
       id="path6"
       d="M 34.066146,30.412123 C 35.255186,29.315768 36,27.744864 36,26 c 0,-3.313709 -2.686292,-6 -6,-6 -3.313709,0 -6,2.686291 -6,6 0,1.784711 0.779221,3.387426 2.016007,4.486488" />
    <path
       style="stroke:#000000;stroke-width:2;stroke-linecap:round"
       id="path8"
       d="M 36.098153,35.156323 C 39.053387,33.184198 41,29.819427 41,26 41,19.924868 36.075132,15 30,15 c -6.075132,0 -11,4.924868 -11,11 0,3.867232 1.995646,7.268355 5.013283,9.229717" />
  </g>
</svg>
