<?xml version="1.0" encoding="UTF-8" standalone="no"?>
<svg
   xmlns:dc="http://purl.org/dc/elements/1.1/"
   xmlns:cc="http://creativecommons.org/ns#"
   xmlns:rdf="http://www.w3.org/1999/02/22-rdf-syntax-ns#"
   xmlns:svg="http://www.w3.org/2000/svg"
   xmlns="http://www.w3.org/2000/svg"
   id="svg8"
   version="1.1"
   viewBox="0 0 60 60"
   height="60"
   width="60">
  <metadata
     id="metadata14">
    <rdf:RDF>
      <cc:Work
         rdf:about="">
        <dc:format>image/svg+xml</dc:format>
        <dc:type
           rdf:resource="http://purl.org/dc/dcmitype/StillImage" />
      </cc:Work>
    </rdf:RDF>
  </metadata>
  <defs
     id="defs12" />
  <g
     style="fill:none;fill-rule:evenodd"
     id="g6">
    <circle
       style="fill:#f0f2f5"
       id="circle2"
       r="30"
       cy="30"
       cx="30" />
    <path
       style="fill:#000000"
       id="path4"
       d="M 18,22.949273 V 17 c 0,-0.552285 0.383756,-1 0.857143,-1 h 4.285714 C 23.616244,16 24,16.447715 24,17 v 2.409268 l 5.588403,-3.297162 c 0.253346,-0.149475 0.569848,-0.149475 0.823194,0 l 15.2,8.968012 C 45.852561,25.222287 46,25.478353 46,25.75468 v 5.458533 c 0,0.434465 -0.358172,0.786668 -0.8,0.786668 -0.144995,0 -0.287264,-0.03875 -0.411597,-0.112106 L 42,30.242615 V 42 h 3 c 0.552285,0 1,0.447715 1,1 0,0.552285 -0.447715,1 -1,1 H 15 c -0.552285,0 -1,-0.447715 -1,-1 0,-0.552285 0.447715,-1 1,-1 h 3 V 30.242615 l -2.788403,1.64516 C 14.832732,32.111306 14.341324,31.990501 14.114006,31.617951 14.039406,31.49569 14,31.355792 14,31.213213 V 25.75468 c 0,-0.276327 0.147439,-0.532393 0.388403,-0.674562 z m 2,-1.180002 2,-1.180001 V 18 H 20 Z M 40,29.062613 30,23.162605 20,29.062613 V 42 h 4 V 34.714286 C 24,34.319797 24.335786,34 24.75,34 h 10.5 C 35.664214,34 36,34.319797 36,34.714286 V 42 h 4 z M 26,42 h 8 V 36 H 26 Z M 16,26.45143 v 2.649032 L 30,20.84045 44,29.100462 V 26.45143 L 30,18.191418 Z" />
  </g>
</svg>
